<svg width="634" height="123" viewBox="0 0 634 123" fill="none" xmlns="http://www.w3.org/2000/svg">
<path d="M138.21 26.18V52.46H83.3V0.630005H115.6V26.18H138.21Z" fill="#55AFF9"/>
<path d="M52.15 121.71C43.3002 120.704 34.7883 117.728 27.24 113C14.4332 105.051 5.28038 92.3689 1.76998 77.71C-7.57002 38.78 21.68 4.06001 59.04 4.06001C64.12 4.06001 68.5 5.06002 73.72 1.58002V36.35C73.7297 37.6898 73.4524 39.016 72.9066 40.2396C72.3608 41.4631 71.5593 42.5556 70.5559 43.4434C69.5525 44.3312 68.3706 44.9937 67.0896 45.3864C65.8087 45.7791 64.4585 45.8929 63.13 45.72C60.8598 45.3735 58.5552 45.313 56.27 45.54C51.3841 46.0801 46.7429 47.9615 42.8601 50.976C38.9773 53.9905 36.0042 58.0205 34.27 62.62C33.3866 64.9009 32.8474 67.3005 32.67 69.74C32.1408 76.4885 34.2133 83.1838 38.4625 88.4533C42.7117 93.7227 48.8157 97.167 55.523 98.0801C62.2304 98.9931 69.033 97.3058 74.5361 93.3639C80.0392 89.4221 83.826 83.5244 85.12 76.88C85.4513 75.0863 85.6021 73.2638 85.57 71.44C87.45 86.8 86.74 117.21 52.15 121.71Z" fill="url(#paint0_linear_5_3)"/>
<path d="M52.15 121.71C43.3002 120.704 34.7883 117.728 27.24 113V62.62H34.24C33.3566 64.9009 32.8174 67.3005 32.64 69.74C32.1108 76.4885 34.1833 83.1838 38.4325 88.4532C42.6817 93.7227 48.7857 97.167 55.493 98.08C62.2004 98.9931 69.003 97.3058 74.5061 93.3639C80.0092 89.4221 83.796 83.5244 85.09 76.88C85.4213 75.0863 85.5721 73.2638 85.54 71.44C87.45 86.8 86.74 117.21 52.15 121.71Z" fill="url(#paint1_linear_5_3)"/>
<path d="M115.51 71.16C114.34 88.46 106.21 102.69 93.67 111.67C83.5 119 70.46 122.83 55.92 122.05C54.66 121.98 53.39 121.87 52.15 121.71C80.56 118.01 86.15 96.83 86.15 80.88C86.1176 76.3887 85.6724 71.9098 84.82 67.5L83.92 62.71C83.9239 62.6801 83.9239 62.6499 83.92 62.62H115.4C115.606 65.462 115.642 68.3137 115.51 71.16Z" fill="#55AFF9"/>
<path d="M172.7 97.08C173.282 96.0301 174.14 95.1589 175.18 94.56C176.24 93.9486 177.446 93.6342 178.67 93.65C180.063 93.6132 181.434 93.9927 182.61 94.74C183.741 95.4745 184.604 96.5549 185.07 97.82H182.91C182.564 97.0296 181.989 96.3609 181.26 95.9C180.476 95.4393 179.579 95.2072 178.67 95.23C177.763 95.2199 176.869 95.4511 176.08 95.9C175.31 96.3515 174.685 97.0144 174.28 97.81C173.827 98.708 173.603 99.7045 173.63 100.71C173.603 101.709 173.827 102.699 174.28 103.59C174.682 104.388 175.308 105.051 176.08 105.5C176.865 105.958 177.761 106.193 178.67 106.18C179.58 106.208 180.478 105.975 181.26 105.51C181.991 105.056 182.567 104.389 182.91 103.6H185.07C184.6 104.858 183.737 105.931 182.61 106.66C181.43 107.397 180.061 107.773 178.67 107.74C177.447 107.755 176.243 107.444 175.18 106.84C174.14 106.249 173.283 105.384 172.7 104.34C172.103 103.223 171.791 101.976 171.791 100.71C171.791 99.4437 172.103 98.1968 172.7 97.08Z" fill="#55AFF9"/>
<path d="M196.64 107.11C195.813 106.645 195.14 105.95 194.7 105.11C194.206 104.189 193.961 103.155 193.99 102.11C193.968 101.082 194.22 100.068 194.72 99.17C195.175 98.3209 195.871 97.6251 196.72 97.17C197.582 96.7229 198.539 96.4895 199.51 96.4895C200.481 96.4895 201.438 96.7229 202.3 97.17C203.148 97.627 203.843 98.3223 204.3 99.17C204.779 100.081 205.03 101.095 205.03 102.125C205.03 103.155 204.779 104.169 204.3 105.08C203.828 105.916 203.136 106.608 202.3 107.08C201.437 107.544 200.47 107.781 199.49 107.77C198.498 107.809 197.514 107.581 196.64 107.11ZM201.22 105.76C201.8 105.445 202.275 104.97 202.59 104.39C202.96 103.714 203.143 102.951 203.12 102.18C203.145 101.407 202.966 100.641 202.6 99.96C202.296 99.3878 201.83 98.9182 201.26 98.61C200.707 98.3115 200.088 98.1568 199.46 98.16C198.828 98.1521 198.205 98.307 197.65 98.61C197.084 98.9164 196.624 99.3871 196.33 99.96C195.98 100.647 195.809 101.41 195.83 102.18C195.808 102.952 195.976 103.718 196.32 104.41C196.606 104.984 197.059 105.459 197.62 105.77C198.164 106.072 198.778 106.227 199.4 106.22C200.035 106.218 200.66 106.06 201.22 105.76Z" fill="#55AFF9"/>
<path d="M214.26 99.24C214.683 98.4303 215.324 97.7549 216.11 97.29C216.915 96.8255 217.831 96.5871 218.76 96.6C219.58 96.5925 220.388 96.792 221.11 97.18C221.793 97.5281 222.367 98.0574 222.77 98.71V93H224.59V107.65H222.77V105.65C222.399 106.318 221.853 106.871 221.19 107.25C220.444 107.673 219.598 107.887 218.74 107.87C217.814 107.886 216.902 107.64 216.11 107.16C215.317 106.681 214.676 105.988 214.26 105.16C213.801 104.253 213.571 103.247 213.59 102.23C213.554 101.192 213.785 100.163 214.26 99.24ZM222.26 100.04C221.952 99.4581 221.488 98.9734 220.92 98.64C220.357 98.3185 219.718 98.1528 219.07 98.16C218.426 98.1553 217.793 98.3172 217.23 98.63C216.666 98.9576 216.208 99.44 215.91 100.02C215.566 100.68 215.394 101.416 215.41 102.16C215.394 102.914 215.566 103.659 215.91 104.33C216.208 104.913 216.666 105.398 217.23 105.73C217.792 106.051 218.428 106.22 219.075 106.22C219.722 106.22 220.358 106.051 220.92 105.73C221.49 105.4 221.955 104.914 222.26 104.33C222.6 103.665 222.768 102.926 222.75 102.18C222.782 101.425 222.62 100.675 222.28 100L222.26 100.04Z" fill="#55AFF9"/>
<path d="M244.41 102.87H235.74C235.742 103.326 235.836 103.778 236.015 104.198C236.194 104.617 236.455 104.997 236.783 105.315C237.111 105.632 237.499 105.881 237.924 106.047C238.35 106.213 238.804 106.292 239.26 106.28C239.951 106.302 240.632 106.11 241.21 105.73C241.723 105.378 242.109 104.869 242.31 104.28H244.25C243.975 105.3 243.362 106.196 242.51 106.82C241.566 107.502 240.424 107.853 239.26 107.82C238.295 107.837 237.343 107.599 236.5 107.13C235.688 106.656 235.026 105.963 234.59 105.13C234.142 104.209 233.91 103.199 233.91 102.175C233.91 101.151 234.142 100.141 234.59 99.22C235.005 98.379 235.664 97.6822 236.48 97.22C237.338 96.7521 238.303 96.5177 239.28 96.54C240.233 96.5194 241.175 96.7505 242.01 97.21C242.786 97.6372 243.421 98.2797 243.84 99.06C244.279 99.8771 244.503 100.793 244.49 101.72C244.485 102.105 244.458 102.488 244.41 102.87ZM242.15 99.63C241.857 99.1416 241.426 98.7516 240.91 98.51C240.372 98.2451 239.779 98.1114 239.18 98.12C238.324 98.1008 237.493 98.4124 236.86 98.99C236.194 99.6238 235.799 100.491 235.76 101.41H242.61C242.628 100.785 242.469 100.168 242.15 99.63Z" fill="#55AFF9"/>
<path d="M273.78 93.83V95.29H267.78V99.94H272.65V101.41H267.78V107.62H266V93.83H273.78Z" fill="#55AFF9"/>
<path d="M284.86 107.11C284.037 106.641 283.364 105.947 282.92 105.11C282.426 104.189 282.181 103.155 282.21 102.11C282.192 101.083 282.444 100.069 282.94 99.17C283.4 98.3247 284.095 97.6303 284.94 97.17C285.802 96.7229 286.759 96.4895 287.73 96.4895C288.701 96.4895 289.658 96.7229 290.52 97.17C291.368 97.627 292.063 98.3223 292.52 99.17C292.999 100.081 293.249 101.095 293.249 102.125C293.249 103.155 292.999 104.169 292.52 105.08C292.048 105.916 291.356 106.608 290.52 107.08C289.657 107.544 288.69 107.781 287.71 107.77C286.718 107.809 285.734 107.581 284.86 107.11ZM289.44 105.76C290.02 105.445 290.495 104.97 290.81 104.39C291.18 103.714 291.363 102.951 291.34 102.18C291.365 101.407 291.186 100.641 290.82 99.96C290.516 99.3878 290.05 98.9182 289.48 98.61C288.927 98.3115 288.308 98.1568 287.68 98.16C287.048 98.1521 286.425 98.307 285.87 98.61C285.304 98.9164 284.844 99.3871 284.55 99.96C284.204 100.647 284.035 101.411 284.06 102.18C284.035 102.951 284.2 103.717 284.54 104.41C284.829 104.982 285.281 105.456 285.84 105.77C286.384 106.072 286.998 106.227 287.62 106.22C288.255 106.218 288.88 106.06 289.44 105.76Z" fill="#55AFF9"/>
<path d="M305.64 97.09C306.299 96.732 307.041 96.556 307.79 96.58V98.44H307.31C305.31 98.44 304.31 99.5333 304.31 101.72V107.62H302.51V96.77H304.31V98.54C304.604 97.9381 305.066 97.4344 305.64 97.09Z" fill="#55AFF9"/>
<path d="M330.94 107.27C330.263 106.984 329.676 106.521 329.24 105.93C328.827 105.345 328.607 104.646 328.61 103.93H330.53C330.585 104.554 330.87 105.135 331.33 105.56C331.901 106.039 332.636 106.28 333.38 106.23C334.103 106.262 334.814 106.031 335.38 105.58C335.619 105.377 335.809 105.124 335.937 104.839C336.065 104.553 336.127 104.243 336.12 103.93C336.143 103.461 335.989 103.001 335.69 102.64C335.39 102.309 335.017 102.052 334.6 101.89C334.024 101.674 333.436 101.491 332.84 101.34C332.093 101.154 331.361 100.914 330.65 100.62C330.092 100.378 329.606 99.9959 329.24 99.51C328.836 98.9234 328.632 98.2218 328.66 97.51C328.647 96.8015 328.846 96.1053 329.23 95.51C329.631 94.9158 330.193 94.4477 330.85 94.16C331.601 93.8355 332.412 93.6753 333.23 93.69C334.373 93.6497 335.496 94.0027 336.41 94.69C336.811 94.9952 337.142 95.3823 337.382 95.8254C337.621 96.2685 337.764 96.7575 337.8 97.26H335.8C335.762 96.9846 335.668 96.7197 335.526 96.4809C335.383 96.2422 335.194 96.0344 334.97 95.87C334.418 95.4399 333.729 95.2234 333.03 95.26C332.368 95.2352 331.718 95.4401 331.19 95.84C330.953 96.0396 330.765 96.2916 330.642 96.5763C330.518 96.8609 330.463 97.1703 330.48 97.48C330.459 97.9271 330.613 98.3648 330.91 98.7C331.184 99.0159 331.526 99.2655 331.91 99.43C332.33 99.59 332.91 99.78 333.67 99.99C334.416 100.186 335.148 100.433 335.86 100.73C336.423 100.982 336.915 101.37 337.29 101.86C337.71 102.466 337.918 103.194 337.88 103.93C337.88 104.6 337.696 105.257 337.35 105.83C336.962 106.449 336.413 106.951 335.76 107.28C334.995 107.664 334.146 107.853 333.29 107.83C332.476 107.812 331.675 107.621 330.94 107.27Z" fill="#55AFF9"/>
<path d="M349.52 107.11C348.697 106.641 348.024 105.947 347.58 105.11C347.09 104.188 346.848 103.154 346.88 102.11C346.859 101.084 347.107 100.07 347.6 99.17C348.06 98.3247 348.755 97.6303 349.6 97.17C350.462 96.7229 351.419 96.4895 352.39 96.4895C353.361 96.4895 354.318 96.7229 355.18 97.17C356.028 97.627 356.723 98.3223 357.18 99.17C357.675 100.073 357.923 101.09 357.9 102.12C357.933 103.169 357.677 104.207 357.16 105.12C356.693 105.961 356.001 106.653 355.16 107.12C354.297 107.585 353.33 107.823 352.35 107.81C351.361 107.831 350.385 107.589 349.52 107.11ZM354.1 105.76C354.682 105.446 355.162 104.97 355.48 104.39C355.847 103.713 356.026 102.95 356 102.18C356.023 101.408 355.848 100.644 355.49 99.96C355.185 99.385 354.715 98.9147 354.14 98.61C353.584 98.3149 352.964 98.1606 352.335 98.1606C351.706 98.1606 351.086 98.3149 350.53 98.61C349.964 98.9164 349.504 99.3871 349.21 99.96C348.887 100.657 348.72 101.417 348.72 102.185C348.72 102.953 348.887 103.713 349.21 104.41C349.495 104.982 349.944 105.455 350.5 105.77C351.045 106.07 351.658 106.225 352.28 106.22C352.916 106.221 353.541 106.063 354.1 105.76Z" fill="#55AFF9"/>
<path d="M369 93V107.65H367.2V93H369Z" fill="#55AFF9"/>
<path d="M383 106L386.37 96.81H388.29L384 107.62H381.9L377.65 96.77H379.59L383 106Z" fill="#55AFF9"/>
<path d="M406.81 102.87H398.15C398.15 103.327 398.241 103.78 398.42 104.201C398.598 104.622 398.859 105.003 399.187 105.321C399.516 105.639 399.905 105.888 400.331 106.053C400.758 106.217 401.213 106.295 401.67 106.28C402.378 106.313 403.078 106.12 403.67 105.73C404.183 105.378 404.569 104.869 404.77 104.28H406.71C406.435 105.3 405.822 106.196 404.97 106.82C404.025 107.501 402.884 107.852 401.72 107.82C400.755 107.837 399.803 107.599 398.96 107.13C398.148 106.656 397.486 105.963 397.05 105.13C396.596 104.211 396.36 103.2 396.36 102.175C396.36 101.15 396.596 100.139 397.05 99.22C397.465 98.379 398.124 97.6822 398.94 97.22C399.797 96.7513 400.763 96.5167 401.74 96.54C402.693 96.5194 403.635 96.7505 404.47 97.21C405.241 97.643 405.875 98.2841 406.3 99.06C406.736 99.8779 406.956 100.793 406.94 101.72C406.918 102.105 406.875 102.489 406.81 102.87ZM404.56 99.63C404.261 99.1468 403.831 98.7584 403.32 98.51C402.782 98.2461 402.189 98.1125 401.59 98.12C400.73 98.1003 399.896 98.4118 399.26 98.99C398.597 99.6248 398.206 100.493 398.17 101.41H405C405.02 100.788 404.867 100.172 404.56 99.63Z" fill="#55AFF9"/>
<path d="M438.05 93.83L433.56 102.42V107.62H431.75V102.42L427.24 93.83H429.24L432.64 100.83L436.05 93.83H438.05Z" fill="#55AFF9"/>
<path d="M448.85 107.11C448.027 106.641 447.354 105.947 446.91 105.11C446.416 104.189 446.171 103.155 446.2 102.11C446.178 101.082 446.43 100.068 446.93 99.17C447.385 98.3209 448.081 97.6251 448.93 97.17C449.792 96.7229 450.749 96.4895 451.72 96.4895C452.691 96.4895 453.648 96.7229 454.51 97.17C455.355 97.6303 456.05 98.3247 456.51 99.17C456.989 100.081 457.239 101.095 457.239 102.125C457.239 103.155 456.989 104.169 456.51 105.08C456.038 105.916 455.346 106.608 454.51 107.08C453.647 107.544 452.68 107.781 451.7 107.77C450.708 107.809 449.724 107.581 448.85 107.11ZM453.43 105.76C454.01 105.445 454.485 104.97 454.8 104.39C455.17 103.714 455.353 102.951 455.33 102.18C455.355 101.407 455.176 100.641 454.81 99.96C454.506 99.3878 454.04 98.9182 453.47 98.61C452.917 98.3115 452.298 98.1568 451.67 98.16C451.038 98.1521 450.415 98.307 449.86 98.61C449.294 98.9164 448.834 99.3871 448.54 99.96C448.19 100.647 448.019 101.41 448.04 102.18C448.018 102.952 448.186 103.718 448.53 104.41C448.819 104.982 449.271 105.456 449.83 105.77C450.374 106.072 450.988 106.227 451.61 106.22C452.245 106.218 452.87 106.06 453.43 105.76Z" fill="#55AFF9"/>
<path d="M476.09 96.77V107.62H474.29V106C473.943 106.555 473.448 107.002 472.86 107.29C472.239 107.6 471.554 107.761 470.86 107.76C470.07 107.769 469.288 107.591 468.58 107.24C467.905 106.883 467.351 106.333 466.99 105.66C466.578 104.875 466.375 103.996 466.4 103.11V96.75H468.19V102.87C468.129 103.764 468.42 104.647 469 105.33C469.285 105.624 469.63 105.853 470.011 106.003C470.392 106.153 470.801 106.22 471.21 106.2C471.631 106.22 472.052 106.151 472.445 105.998C472.838 105.845 473.194 105.61 473.49 105.31C474.087 104.58 474.384 103.651 474.32 102.71V96.71L476.09 96.77Z" fill="#55AFF9"/>
<path d="M489.23 97.09C489.885 96.7324 490.624 96.5563 491.37 96.58V98.44H490.9C488.9 98.44 487.9 99.5333 487.9 101.72V107.62H486.1V96.77H487.9V98.54C488.194 97.9381 488.656 97.4344 489.23 97.09Z" fill="#55AFF9"/>
<path d="M520.64 100.72C519.638 101.553 518.35 101.963 517.05 101.86H514.39V107.62H512.59V93.83H517.05C518.339 93.7526 519.609 94.1712 520.6 95C520.98 95.3782 521.282 95.8278 521.487 96.3229C521.693 96.818 521.799 97.3489 521.799 97.885C521.799 98.4212 521.693 98.9521 521.487 99.4472C521.282 99.9423 520.98 100.392 520.6 100.77L520.64 100.72ZM519.26 99.72C519.508 99.4809 519.701 99.1907 519.825 98.8694C519.95 98.5482 520.002 98.2037 519.98 97.86C519.98 96.16 518.98 95.31 517.05 95.31H514.39V100.38H517.05C517.844 100.446 518.633 100.211 519.26 99.72Z" fill="#55AFF9"/>
<path d="M534.14 97.09C534.798 96.7311 535.541 96.555 536.29 96.58V98.44H535.81C533.81 98.44 532.81 99.5333 532.81 101.72V107.62H531V96.77H532.8V98.54C533.096 97.9368 533.562 97.4329 534.14 97.09Z" fill="#55AFF9"/>
<path d="M547.26 107.11C546.437 106.641 545.764 105.947 545.32 105.11C544.83 104.188 544.588 103.154 544.62 102.11C544.599 101.084 544.848 100.07 545.34 99.17C545.8 98.3247 546.495 97.6303 547.34 97.17C548.202 96.7229 549.159 96.4895 550.13 96.4895C551.101 96.4895 552.058 96.7229 552.92 97.17C553.768 97.627 554.463 98.3223 554.92 99.17C555.415 100.073 555.663 101.09 555.64 102.12C555.673 103.169 555.417 104.207 554.9 105.12C554.433 105.961 553.741 106.653 552.9 107.12C552.037 107.585 551.07 107.823 550.09 107.81C549.101 107.833 548.124 107.592 547.26 107.11ZM551.84 105.76C552.423 105.446 552.902 104.97 553.22 104.39C553.587 103.713 553.766 102.95 553.74 102.18C553.763 101.408 553.588 100.644 553.23 99.96C552.922 99.3871 552.453 98.9176 551.88 98.61C551.324 98.3149 550.704 98.1606 550.075 98.1606C549.446 98.1606 548.826 98.3149 548.27 98.61C547.716 98.935 547.274 99.4194 547 100C546.654 100.687 546.485 101.451 546.51 102.22C546.485 102.991 546.65 103.757 546.99 104.45C547.282 105.02 547.733 105.493 548.29 105.81C548.835 106.11 549.448 106.265 550.07 106.26C550.692 106.24 551.3 106.069 551.84 105.76Z" fill="#55AFF9"/>
<path d="M568.31 97.21C569.054 96.7925 569.897 96.5819 570.75 96.6C571.673 96.5873 572.582 96.8258 573.38 97.29C574.163 97.7555 574.801 98.431 575.22 99.24C575.683 100.142 575.914 101.146 575.89 102.16C575.909 103.177 575.679 104.183 575.22 105.09C574.805 105.916 574.165 106.608 573.375 107.088C572.584 107.567 571.674 107.814 570.75 107.8C569.888 107.816 569.036 107.606 568.28 107.19C567.616 106.822 567.066 106.279 566.69 105.62V107.62H564.89V93H566.69V98.82C567.076 98.1477 567.635 97.5916 568.31 97.21ZM573.56 100.02C573.255 99.4386 572.79 98.9564 572.22 98.63C571.654 98.3172 571.017 98.1554 570.37 98.16C569.728 98.1554 569.097 98.3211 568.54 98.64C567.971 98.9795 567.504 99.4667 567.19 100.05C566.847 100.707 566.675 101.439 566.69 102.18C566.675 102.927 566.847 103.666 567.19 104.33C567.502 104.913 567.969 105.397 568.54 105.73C569.096 106.052 569.727 106.222 570.37 106.22C571.019 106.223 571.657 106.054 572.22 105.73C572.79 105.4 573.255 104.914 573.56 104.33C573.901 103.658 574.069 102.913 574.05 102.16C574.073 101.41 573.904 100.667 573.56 100V100.02Z" fill="#55AFF9"/>
<path d="M587 93V107.65H585.2V93H587Z" fill="#55AFF9"/>
<path d="M606.83 102.87H598.16C598.166 103.339 598.267 103.802 598.456 104.232C598.645 104.661 598.918 105.048 599.26 105.37C599.918 105.976 600.786 106.303 601.68 106.28C602.388 106.313 603.088 106.12 603.68 105.73C604.193 105.378 604.579 104.869 604.78 104.28H606.72C606.445 105.3 605.832 106.196 604.98 106.82C604.037 107.503 602.894 107.855 601.73 107.82C600.765 107.837 599.813 107.599 598.97 107.13C598.158 106.656 597.496 105.963 597.06 105.13C596.612 104.209 596.38 103.199 596.38 102.175C596.38 101.151 596.612 100.141 597.06 99.22C597.475 98.379 598.134 97.6822 598.95 97.22C599.808 96.7521 600.773 96.5177 601.75 96.54C602.706 96.5205 603.651 96.7514 604.49 97.21C605.261 97.643 605.895 98.2841 606.32 99.06C606.752 99.8795 606.972 100.794 606.96 101.72C606.938 102.105 606.895 102.489 606.83 102.87ZM604.57 99.63C604.279 99.1442 603.851 98.7548 603.34 98.51C602.798 98.2464 602.202 98.1128 601.6 98.12C600.743 98.1008 599.913 98.4124 599.28 98.99C598.614 99.6238 598.219 100.491 598.18 101.41H605C605.027 100.788 604.878 100.171 604.57 99.63Z" fill="#55AFF9"/>
<path d="M631.49 97.1C632.155 97.4597 632.7 98.0053 633.06 98.67C633.462 99.462 633.658 100.342 633.63 101.23V107.62H631.85V101.49C631.91 100.588 631.624 99.698 631.05 99C630.769 98.7116 630.431 98.4859 630.057 98.3377C629.683 98.1894 629.282 98.1221 628.88 98.14C628.464 98.121 628.049 98.1915 627.662 98.3468C627.276 98.502 626.927 98.7385 626.64 99.04C626.044 99.7702 625.747 100.7 625.81 101.64V107.64H624V101.51C624.06 100.608 623.774 99.7179 623.2 99.02C622.919 98.7316 622.581 98.5059 622.207 98.3577C621.833 98.2095 621.432 98.1421 621.03 98.16C620.614 98.141 620.199 98.2115 619.812 98.3668C619.426 98.522 619.077 98.7584 618.79 99.06C618.194 99.7902 617.897 100.719 617.96 101.66V107.66H616.16V96.77H618V98.34C618.352 97.7807 618.85 97.3278 619.44 97.03C620.062 96.7239 620.747 96.5697 621.44 96.58C622.284 96.5618 623.116 96.7727 623.85 97.19C624.553 97.6057 625.104 98.2369 625.42 98.99C625.705 98.2445 626.234 97.6173 626.92 97.21C627.627 96.7881 628.437 96.57 629.26 96.58C630.035 96.5681 630.8 96.7467 631.49 97.1Z" fill="#55AFF9"/>
<path d="M501.94 25.34V35.74H484.28V80.51H471.5V35.74H453.84V25.34H501.94Z" fill="#007AFF"/>
<path d="M568.4 81.11C564.399 81.1824 560.441 80.2761 556.87 78.47C553.568 76.7739 550.797 74.2002 548.862 71.0317C546.927 67.8631 545.904 64.2225 545.904 60.51C545.904 56.7975 546.927 53.1568 548.862 49.9883C550.797 46.8197 553.568 44.246 556.87 42.55C560.441 40.7438 564.399 39.8375 568.4 39.91C572.234 39.8203 576.025 40.7301 579.4 42.55C582.468 44.2422 584.895 46.8946 586.31 50.1L577.31 54.93C576.422 53.208 575.071 51.7675 573.41 50.77C571.863 49.8768 570.106 49.4141 568.32 49.43C566.447 49.3978 564.598 49.86 562.96 50.77C561.376 51.6521 560.075 52.9666 559.21 54.56C558.302 56.4121 557.83 58.4474 557.83 60.51C557.83 62.5726 558.302 64.6079 559.21 66.46C560.078 68.0511 561.378 69.3647 562.96 70.25C564.6 71.1551 566.447 71.617 568.32 71.59C570.101 71.6048 571.855 71.1568 573.41 70.29C575.088 69.2955 576.442 67.8369 577.31 66.09L586.31 71C584.873 74.1703 582.449 76.7908 579.4 78.47C576.025 80.2898 572.234 81.1997 568.4 81.11Z" fill="#007AFF"/>
<path d="M633.62 57.61V80.51H622V59.4C622 56.18 621.29 53.79 619.89 52.25C619.111 51.4614 618.173 50.8482 617.139 50.4516C616.104 50.0549 614.996 49.8839 613.89 49.95C612.173 49.9232 610.476 50.3217 608.95 51.11C607.466 51.8943 606.266 53.1258 605.52 54.63C604.645 56.5407 604.231 58.63 604.31 60.73V80.51H592.72V25.34H604.33V44.7C605.378 43.6427 606.582 42.7524 607.9 42.06C610.72 40.5927 613.862 39.8537 617.04 39.91C619.989 39.8592 622.909 40.5068 625.56 41.8C628.075 43.0906 630.137 45.1174 631.47 47.61C633.014 50.7101 633.754 54.149 633.62 57.61Z" fill="#007AFF"/>
<path d="M536.94 49.54C535.174 46.5048 532.584 44.0326 529.47 42.41C526.122 40.7428 522.429 39.8867 518.688 39.911C514.948 39.9353 511.266 40.8394 507.94 42.55C504.786 44.2392 502.151 46.756 500.32 49.83C498.426 53.0659 497.461 56.7612 497.53 60.51C497.467 64.2367 498.443 67.9074 500.35 71.11C502.282 74.2486 505.053 76.7841 508.35 78.43C512.077 80.274 516.193 81.1932 520.35 81.11C523.629 81.1772 526.889 80.6066 529.95 79.43C532.602 78.4054 534.973 76.7674 536.87 74.65L530.7 67.94C529.43 69.1884 527.929 70.1769 526.28 70.85C524.485 71.5412 522.574 71.8807 520.65 71.85C518.507 71.9026 516.382 71.4576 514.44 70.55C512.725 69.7236 511.3 68.3992 510.35 66.75C509.819 65.8388 509.435 64.8502 509.21 63.82H539.47C539.47 63.33 539.57 62.82 539.61 62.23C539.663 61.7217 539.69 61.211 539.69 60.7C539.808 56.7988 538.857 52.9396 536.94 49.54ZM509.06 57C509.236 55.8168 509.608 54.6713 510.16 53.61C510.982 52.1012 512.208 50.8512 513.7 50C515.304 49.1082 517.115 48.6562 518.95 48.69C520.769 48.656 522.564 49.1082 524.15 50C525.624 50.8572 526.835 52.1024 527.65 53.6C528.214 54.6712 528.59 55.8314 528.76 57.03L509.06 57Z" fill="#007AFF"/>
<path d="M358.05 46.94C356.282 43.9012 353.693 41.4229 350.58 39.79C347.219 38.1269 343.514 37.2792 339.765 37.3157C336.016 37.3522 332.328 38.2718 329 40C325.849 41.6975 323.213 44.2122 321.37 47.28C319.483 50.5183 318.521 54.2126 318.59 57.96C318.529 61.6846 319.509 65.3524 321.42 68.55C323.351 71.6916 326.122 74.2305 329.42 75.88C333.147 77.7216 337.263 78.6375 341.42 78.55C344.695 78.6211 347.952 78.0539 351.01 76.88C353.701 75.8432 356.099 74.1685 358 72L351.83 65.31C350.553 66.5514 349.049 67.5359 347.4 68.21C345.608 68.9 343.7 69.2395 341.78 69.21C339.637 69.2626 337.512 68.8176 335.57 67.91C333.853 67.0867 332.427 65.7616 331.48 64.11C330.949 63.1988 330.565 62.2101 330.34 61.18H360.6C360.6 60.69 360.7 60.18 360.74 59.57C360.79 59.0683 360.814 58.5642 360.81 58.06C360.914 54.1717 359.96 50.3282 358.05 46.94ZM330.17 54.41C330.346 53.23 330.718 52.0877 331.27 51.03C332.078 49.501 333.306 48.2347 334.81 47.38C336.412 46.4853 338.225 46.0364 340.06 46.08C341.879 46.0376 343.675 46.4867 345.26 47.38C346.734 48.2412 347.945 49.4896 348.76 50.99C349.328 52.0558 349.704 53.2136 349.87 54.41H330.17Z" fill="#007AFF"/>
<path d="M213.51 72C213.36 71.81 213.24 71.61 213.11 71.41C212.609 70.6106 212.161 69.7788 211.77 68.92C210.222 70.535 208.357 71.8127 206.292 72.6731C204.227 73.5335 202.007 73.958 199.77 73.92C197.482 73.9503 195.208 73.5465 193.07 72.73C191.091 71.9709 189.292 70.806 187.79 69.31C186.292 67.8021 185.114 66.0059 184.33 64.03C182.69 59.6691 182.69 54.8609 184.33 50.5C185.112 48.5229 186.289 46.7262 187.79 45.22C189.289 43.7177 191.088 42.5488 193.07 41.79C195.21 40.9816 197.483 40.5814 199.77 40.61C202.23 40.5828 204.665 41.1019 206.9 42.13C208.764 43.0157 210.457 44.2243 211.9 45.7C212.248 44.9679 212.639 44.2568 213.07 43.57C213.29 43.22 213.51 42.88 213.76 42.57C215.072 40.6104 216.654 38.8463 218.46 37.33C216.398 35.3802 214.004 33.8155 211.39 32.71C203.878 29.7226 195.532 29.5909 187.93 32.34C184.584 33.5921 181.524 35.5032 178.93 37.96C176.381 40.3716 174.356 43.2819 172.98 46.51C170.154 53.4188 170.154 61.1613 172.98 68.07C174.363 71.3199 176.396 74.253 178.953 76.6895C181.51 79.1261 184.537 81.0149 187.85 82.24C191.425 83.5907 195.219 84.2688 199.04 84.24C203.265 84.3043 207.456 83.4904 211.35 81.85C213.828 80.7837 216.113 79.3138 218.11 77.5C216.327 75.8912 214.778 74.0398 213.51 72Z" fill="#007AFF"/>
<path d="M261.86 47.19C259.968 44.1053 257.267 41.5979 254.05 39.94C250.649 38.266 246.92 37.3656 243.13 37.3033C239.34 37.2411 235.584 38.0186 232.13 39.58L231.4 39.94C228.475 41.474 225.974 43.7068 224.12 46.44C223.93 46.7 223.77 46.96 223.6 47.23C221.726 50.4611 220.74 54.1299 220.74 57.865C220.74 61.6001 221.726 65.2689 223.6 68.5C223.694 68.6594 223.798 68.813 223.91 68.96C225.779 71.8518 228.358 74.2169 231.4 75.83L231.75 76C235.232 77.6802 239.054 78.5386 242.92 78.5091C246.786 78.4797 250.594 77.5631 254.05 75.83C256.458 74.4769 258.573 72.6586 260.272 70.4808C261.972 68.303 263.221 65.8091 263.948 63.1441C264.674 60.4792 264.864 57.6964 264.506 54.9575C264.147 52.2185 263.248 49.5782 261.86 47.19ZM251.6 63.82C250.771 65.4139 249.51 66.7415 247.96 67.65C246.362 68.5226 244.571 68.9799 242.75 68.9799C240.929 68.9799 239.138 68.5226 237.54 67.65C235.981 66.7406 234.706 65.4142 233.86 63.82C232.958 61.9714 232.49 59.9417 232.49 57.885C232.49 55.8283 232.958 53.7986 233.86 51.95C234.716 50.3733 235.989 49.0622 237.54 48.16C239.136 47.2811 240.928 46.8202 242.75 46.8202C244.572 46.8202 246.364 47.2811 247.96 48.16C249.508 49.075 250.769 50.4052 251.6 52C252.476 53.856 252.93 55.8828 252.93 57.935C252.93 59.9872 252.476 62.014 251.6 63.87V63.82Z" fill="#007AFF"/>
<path d="M313 77.64C313 77.64 314.16 59.97 304.8 46.97C301.817 42.6914 297.43 39.5921 292.4 38.21C277.23 34.3 270.29 49.71 270.29 57.76C270.29 66.96 275.41 78.65 289.04 78.51C299.04 78.65 301.89 68.96 300.84 61.84C300.84 61.84 296.74 70.64 288.06 66.93C286.105 65.9002 284.551 64.2461 283.645 62.231C282.739 60.2159 282.533 57.9557 283.06 55.81C284.32 50.07 290.62 47.41 295.91 49.97C300.96 52.42 303.56 58.83 302.91 73.18C302.796 74.7223 302.603 76.2577 302.33 77.78L313 77.64Z" fill="#007AFF"/>
<path d="M313 22.73V56.8C309 45.26 304.26 41.32 302.14 40.06V22.73H313Z" fill="#007AFF"/>
<path d="M381.98 35.59V50.18H405.62V60.41H381.98V80.51H369.21V25.34H409.02V35.59H381.98Z" fill="#55AFF9"/>
<path d="M435.39 81.11C431.445 81.1872 427.544 80.2653 424.05 78.43C420.839 76.7319 418.142 74.2042 416.24 71.11C414.366 67.8789 413.38 64.2101 413.38 60.475C413.38 56.7399 414.366 53.0711 416.24 49.84C418.138 46.7497 420.836 44.2306 424.05 42.55C427.573 40.8132 431.448 39.9099 435.375 39.9099C439.302 39.9099 443.177 40.8132 446.7 42.55C449.963 44.2742 452.695 46.8558 454.6 50.017C456.505 53.1782 457.512 56.7992 457.512 60.49C457.512 64.1809 456.505 67.8018 454.6 70.963C452.695 74.1242 449.963 76.7058 446.7 78.43C443.214 80.2571 439.325 81.1787 435.39 81.11ZM435.39 71.59C437.215 71.6171 439.014 71.1544 440.6 70.25C442.152 69.3441 443.414 68.0158 444.24 66.42C445.122 64.5677 445.58 62.5418 445.58 60.49C445.58 58.4383 445.122 56.4124 444.24 54.56C443.407 52.9796 442.146 51.666 440.6 50.77C439.006 49.8911 437.215 49.4302 435.395 49.4302C433.575 49.4302 431.784 49.8911 430.19 50.77C428.637 51.6698 427.364 52.9815 426.51 54.56C425.602 56.405 425.13 58.4338 425.13 60.49C425.13 62.5463 425.602 64.5751 426.51 66.42C427.356 68.0142 428.631 69.3406 430.19 70.25C431.772 71.1545 433.568 71.6173 435.39 71.59Z" fill="#55AFF9"/>
<defs>
<linearGradient id="paint0_linear_5_3" x1="0.0199749" y1="61.65" x2="86.14" y2="61.65" gradientUnits="userSpaceOnUse">
<stop stop-color="#2A8AFA"/>
<stop offset="0.6" stop-color="#3269F7"/>
<stop offset="1" stop-color="#3659F5"/>
</linearGradient>
<linearGradient id="paint1_linear_5_3" x1="27.24" y1="92.16" x2="86.14" y2="92.16" gradientUnits="userSpaceOnUse">
<stop stop-color="#007AFF" stop-opacity="0"/>
<stop offset="0.12" stop-color="#0078FC" stop-opacity="0.03"/>
<stop offset="0.28" stop-color="#0071F4" stop-opacity="0.13"/>
<stop offset="0.47" stop-color="#0066E6" stop-opacity="0.29"/>
<stop offset="0.66" stop-color="#0056D3" stop-opacity="0.51"/>
<stop offset="0.87" stop-color="#0042BA" stop-opacity="0.79"/>
<stop offset="1" stop-color="#0034A8"/>
</linearGradient>
</defs>
</svg>
