<svg width="99" height="99" viewBox="0 0 99 99" fill="none" xmlns="http://www.w3.org/2000/svg">
<path d="M49.47 98.94C76.7915 98.94 98.94 76.7915 98.94 49.47C98.94 22.1485 76.7915 0 49.47 0C22.1485 0 0 22.1485 0 49.47C0 76.7915 22.1485 98.94 49.47 98.94Z" fill="url(#paint0_linear_11203_551)"/>
<path d="M85.0894 34.32V47H58.6094V22H74.1894V34.32H85.0894Z" fill="white"/>
<path d="M43.5896 80.3895C39.3256 79.9056 35.2247 78.4702 31.5896 76.1895C25.4129 72.3636 20.9962 66.2542 19.2996 59.1895C18.2366 54.9847 18.1466 50.5929 19.0364 46.3481C19.9262 42.1032 21.7725 38.1173 24.4346 34.6934C27.0968 31.2695 30.5048 28.4979 34.3994 26.5893C38.2939 24.6808 42.5725 23.6856 46.9096 23.6795C49.3596 23.6795 51.4796 24.1395 53.9896 22.4795V39.2495C53.9951 39.8948 53.8621 40.5339 53.5995 41.1234C53.3369 41.7129 52.9508 42.2392 52.4674 42.6667C51.9839 43.0943 51.4143 43.4131 50.7971 43.6016C50.1799 43.7901 49.5294 43.8439 48.8896 43.7595C47.7903 43.5973 46.6753 43.5704 45.5695 43.6795C43.2112 43.9387 40.9707 44.8457 39.0962 46.3001C37.2217 47.7545 35.7865 49.6995 34.9496 51.9195C34.5244 53.0184 34.2649 54.1743 34.1796 55.3495C33.914 58.609 34.9081 61.8462 36.9571 64.395C39.0062 66.9437 41.9544 68.6099 45.1949 69.0507C48.4353 69.4915 51.7214 68.6732 54.3768 66.7644C57.0322 64.8556 58.8549 62.0015 59.4696 58.7895C59.6362 57.9265 59.71 57.0482 59.6896 56.1695C60.6096 63.5595 60.2696 78.2195 43.5896 80.3895Z" fill="white"/>
<path d="M43.5898 80.3894C39.3258 79.9055 35.225 78.4702 31.5898 76.1894V51.8994H34.9598C34.5346 52.9983 34.2751 54.1542 34.1898 55.3294C33.9243 58.5889 34.9183 61.8262 36.9674 64.3749C39.0165 66.9236 41.9647 68.5899 45.2051 69.0306C48.4456 69.4714 51.7317 68.6532 54.3871 66.7444C57.0425 64.8355 58.8651 61.9814 59.4798 58.7694C59.6465 57.9064 59.7202 57.0281 59.6998 56.1494C60.6098 63.5594 60.2698 78.2194 43.5898 80.3894Z" fill="url(#paint1_linear_11203_551)"/>
<path d="M74.1498 56.0197C73.9667 59.8563 72.9246 63.6029 71.1004 66.9831C69.2762 70.3632 66.7164 73.2908 63.6098 75.5497C58.2955 79.2529 51.8703 81.018 45.4099 80.5497C44.7999 80.5497 44.1898 80.4597 43.5898 80.3797C57.2898 78.5997 59.9698 68.3797 59.9798 60.6897C59.967 58.5245 59.7527 56.3652 59.3398 54.2397L58.9099 51.9297H74.0999C74.1969 53.2909 74.2136 54.6566 74.1498 56.0197Z" fill="white"/>
<defs>
<linearGradient id="paint0_linear_11203_551" x1="0" y1="49.47" x2="98.94" y2="49.47" gradientUnits="userSpaceOnUse">
<stop stop-color="#55AFF9"/>
<stop offset="1" stop-color="#1341EA"/>
</linearGradient>
<linearGradient id="paint1_linear_11203_551" x1="31.5798" y1="66.1394" x2="59.9798" y2="66.1394" gradientUnits="userSpaceOnUse">
<stop stop-color="white" stop-opacity="0"/>
<stop offset="0.1" stop-color="#F9FCFF" stop-opacity="0.02"/>
<stop offset="0.22" stop-color="#E9F4FF" stop-opacity="0.09"/>
<stop offset="0.36" stop-color="#CEE6FF" stop-opacity="0.19"/>
<stop offset="0.51" stop-color="#A9D2FF" stop-opacity="0.34"/>
<stop offset="0.67" stop-color="#79B9FF" stop-opacity="0.53"/>
<stop offset="0.84" stop-color="#3F9BFF" stop-opacity="0.75"/>
<stop offset="1" stop-color="#007AFF"/>
</linearGradient>
</defs>
</svg>
